<svg version="1.1" id="Layer_1" xmlns="http://www.w3.org/2000/svg" xmlns:xlink="http://www.w3.org/1999/xlink" x="0px" y="0px"
	 width="175" height="40" viewBox="0 0 687 687" enable-background="new 0 0 687 687" xml:space="preserve">
<path fill="#FFFFFF" opacity="1.000000" stroke="none" 
	d="
M399.000000,688.000000 
	C266.000000,688.000000 133.500000,688.000000 1.000000,688.000000 
	C1.000000,459.000000 1.000000,230.000000 1.000000,1.000000 
	C230.000000,1.000000 459.000000,1.000000 688.000000,1.000000 
	C688.000000,230.000000 688.000000,459.000000 688.000000,688.000000 
	C591.833313,688.000000 495.666656,688.000000 399.000000,688.000000 
M210.051849,335.531219 
	C210.051849,335.531219 210.140305,335.523956 210.778931,335.233398 
	C219.231384,326.660614 227.683838,318.087830 236.368576,309.279419 
	C226.431168,299.453888 215.164246,292.243378 201.502716,287.901978 
	C201.339584,287.956543 201.176468,288.011108 200.326553,287.985870 
	C199.635864,287.962250 198.945175,287.938660 198.059357,287.389709 
	C197.044312,287.275513 196.029251,287.161316 194.363693,286.666412 
	C192.938019,286.384796 191.512344,286.103180 189.905029,285.302582 
	C188.941711,285.214142 187.978409,285.125702 186.196411,284.973938 
	C184.829880,284.917450 183.463348,284.860931 181.716812,284.166870 
	C175.456741,284.402802 169.196655,284.638763 162.282974,284.959808 
	C161.847198,285.008545 161.411423,285.057251 160.137146,284.964600 
	C157.398239,285.590576 154.659332,286.216553 151.277283,286.931091 
	C150.848770,286.986816 150.420242,287.042542 149.212067,286.940918 
	C144.291321,288.890198 139.370575,290.839508 133.779404,292.851959 
	C131.513367,294.209808 129.247330,295.567688 126.267296,296.971985 
	C122.123398,300.145508 117.979492,303.319000 113.243866,306.780151 
	C112.716324,307.458527 112.188789,308.136902 111.077667,309.105164 
	C108.198624,312.724030 105.319580,316.342896 101.791298,319.940399 
	C97.834808,326.634094 93.104980,332.998749 90.087181,340.091797 
	C84.289619,353.718414 82.362267,368.047424 83.812149,382.990326 
	C85.281807,398.137024 89.994217,412.198669 98.645233,424.282318 
	C117.541039,450.675873 143.525314,464.187683 176.392487,462.980255 
	C202.060715,462.037292 223.042465,451.090149 240.059082,432.151337 
	C241.003036,431.100739 241.535278,429.680237 242.365662,428.248230 
	C224.129440,414.059387 206.150726,400.136841 188.256363,386.106720 
	C183.075745,382.044861 178.136993,377.674500 173.628784,372.809601 
	C174.644318,371.486481 175.659866,370.163361 176.694183,368.838257 
	C176.694183,368.838257 176.869446,368.807312 177.356293,368.794556 
	C177.834961,368.169983 178.313614,367.545410 179.433197,366.688110 
	C181.171555,364.823486 182.909912,362.958862 185.193008,360.926422 
	C186.224792,359.804535 187.256577,358.682648 188.913773,357.266541 
	C193.056946,352.983521 197.200104,348.700531 201.312042,344.398346 
	C201.312042,344.398346 201.325897,344.369965 201.756577,344.261932 
	C202.024994,344.091034 202.185516,343.848633 202.844803,343.221832 
	C204.286209,341.518890 205.727615,339.815948 207.069885,338.054657 
	C207.069885,338.054657 207.113693,338.161011 207.629837,337.937592 
	C208.210693,337.250092 208.791565,336.562622 209.720108,335.801575 
	C209.720108,335.801575 209.963898,335.542999 210.051849,335.531219 
M411.498260,445.291046 
	C411.498260,445.291046 411.529541,445.217041 411.961700,444.628571 
	C411.930359,443.422607 411.899048,442.216644 412.008911,440.392273 
	C411.951019,439.355927 411.893158,438.319611 411.989716,436.585175 
	C411.941010,435.396759 411.892334,434.208344 411.982880,432.247864 
	C412.250946,430.506531 412.519012,428.765198 412.891479,426.267792 
	C412.750427,424.481262 412.609344,422.694733 412.657257,420.048035 
	C412.571136,417.984314 412.485016,415.920593 412.747894,413.128326 
	C412.817993,411.971069 412.950165,410.813782 412.949188,409.656586 
	C412.921204,375.777222 412.892822,341.897797 412.829773,308.018494 
	C412.817413,301.382660 412.662628,294.747070 412.802979,287.282196 
	C413.436066,283.844391 411.184235,283.992493 408.862366,284.000092 
	C396.862549,284.039337 384.862549,284.021271 372.862610,284.023010 
	C370.096558,284.023407 367.330475,284.023071 364.128632,284.023071 
	C364.128632,287.509888 364.119110,290.305573 364.130127,293.101227 
	C364.211578,313.758942 364.297089,334.416626 364.217560,355.987091 
	C364.266968,362.008087 364.316376,368.029053 364.205078,374.934540 
	C364.216187,377.632355 364.227264,380.330139 364.125549,383.721863 
	C364.206543,384.178802 364.287567,384.635742 364.234406,386.007874 
	C364.234406,392.561157 364.234406,399.114441 364.234406,405.667694 
	C363.781281,405.819275 363.328156,405.970856 362.875031,406.122437 
	C361.605774,404.644348 360.363495,403.142090 359.063232,401.691803 
	C334.086426,373.833160 309.133911,345.952637 284.104218,318.141571 
	C274.994690,308.019806 265.697723,298.066681 256.162231,287.282227 
	C255.535095,286.797302 254.907959,286.312347 254.280823,285.827393 
	C254.131210,286.557312 253.981583,287.287262 253.657135,288.939636 
	C253.619629,344.117889 253.581451,399.296173 253.554611,454.474426 
	C253.554382,454.964233 253.705933,455.454132 253.647964,456.503448 
	C253.702133,456.687805 253.756302,456.872131 253.645065,457.503693 
	C253.645065,457.503693 253.854095,457.932251 253.658417,458.603394 
	C253.720856,459.060089 253.783295,459.516785 253.553970,460.598206 
	C254.559586,461.089233 255.563873,462.004547 256.571045,462.007721 
	C271.696198,462.055664 286.821777,461.983459 302.884674,462.066620 
	C318.306183,461.979614 333.727692,461.892609 350.061127,461.925476 
	C369.384644,461.910065 388.708130,461.894684 408.497498,461.967682 
	C408.497498,461.967682 408.957397,461.852051 409.676453,461.984253 
	C410.150238,461.891205 410.624023,461.798126 411.866882,461.717621 
	C412.147614,458.176849 412.428375,454.636078 412.892822,450.461609 
	C412.450134,448.753113 412.007446,447.044586 411.498260,445.291046 
M458.994049,303.860809 
	C457.975403,305.161865 456.956787,306.462921 455.218964,307.856964 
	C452.376801,310.677399 449.385651,313.368500 446.768219,316.384003 
	C445.768005,317.536346 445.623199,319.431152 444.366119,320.813019 
	C443.478027,321.520325 442.366943,322.069122 441.734650,322.958313 
	C428.044647,342.211517 423.278931,363.947540 426.494019,386.905731 
	C429.611084,409.163910 440.347290,427.765167 457.768402,442.506866 
	C490.372986,470.096710 538.666748,470.015381 571.676392,442.604065 
	C576.577637,438.534058 580.763428,433.602600 585.495728,428.853424 
	C561.448364,410.114197 538.130432,391.943359 515.210938,373.241913 
	C517.226318,370.525116 519.241699,367.808350 521.939026,365.191833 
	C523.314331,364.173096 524.689697,363.154358 526.689148,361.871704 
	C527.923218,360.288055 529.157349,358.704437 530.910461,357.004150 
	C531.314636,356.445282 531.718750,355.886414 532.755981,355.085449 
	C533.416260,354.490936 534.076599,353.896423 535.360413,353.170044 
	C536.676941,351.479919 537.993469,349.789795 539.727234,348.006226 
	C539.983032,347.823700 540.100769,347.575653 540.545349,347.127991 
	C540.545349,347.127991 540.977722,346.910675 541.644043,346.831146 
	C544.127563,344.281921 546.611023,341.732697 549.688232,338.863007 
	C559.543091,329.284943 569.397888,319.706848 579.180847,310.198578 
	C558.544678,286.294128 516.458923,276.703278 486.158173,288.573578 
	C484.450134,289.285858 482.742096,289.998138 480.369141,290.840454 
	C479.546600,291.498718 478.724091,292.156982 477.243439,292.890778 
	C476.458557,293.161346 475.673676,293.431915 474.174713,293.816681 
	C471.575562,295.424561 468.976379,297.032440 465.755554,298.809387 
	C463.717529,300.468384 461.679535,302.127350 458.994049,303.860809 
M583.092834,487.971893 
	C418.552124,487.958374 254.011429,487.944672 89.470726,487.936127 
	C88.639656,487.936096 87.808594,488.009247 86.330444,487.967529 
	C85.898537,488.002136 85.466637,488.036743 84.231171,488.176117 
	C83.857376,489.353821 83.160484,490.530731 83.157433,491.709381 
	C83.094902,515.870972 83.210907,540.033569 83.023682,564.193848 
	C82.988708,568.707520 85.248283,568.850098 88.618263,568.849243 
	C251.585495,568.808105 414.552734,568.817200 577.519958,568.779907 
	C579.925415,568.779358 582.330750,568.266174 584.884583,567.975342 
	C584.884583,541.229187 584.884583,515.093079 584.829895,488.485382 
	C584.654785,488.169525 584.387817,488.032471 583.092834,487.971893 
M330.979309,346.441803 
	C331.397552,347.216339 331.815796,347.990875 332.510376,349.277130 
	C335.934418,339.461670 339.176208,330.227051 342.377197,320.978302 
	C346.673859,308.563690 351.318268,296.249329 355.008514,283.656036 
	C356.272003,279.344360 358.288788,276.397217 361.525238,273.713898 
	C371.393524,265.532257 380.922119,256.912720 391.121979,249.174057 
	C394.745819,246.424606 399.945435,244.396454 404.373688,244.490448 
	C407.934296,244.566010 409.891785,243.474380 412.108795,241.606613 
	C453.704010,206.563721 495.229767,171.437805 536.972046,136.571121 
	C541.039246,133.173874 541.418701,130.751709 538.217285,126.980324 
	C526.084106,112.686951 513.972168,98.374908 501.954193,83.984795 
	C498.930664,80.364433 496.601349,81.051376 493.324585,83.878403 
	C479.590302,95.727699 465.634583,107.320473 451.752563,118.998398 
	C423.232147,142.990555 394.689301,166.956146 366.251495,191.045761 
	C365.164734,191.966370 364.881134,194.021194 364.550537,195.615341 
	C363.290436,201.691895 362.845673,207.876938 357.250458,212.290695 
	C347.976288,219.606628 339.037201,227.351883 330.052643,235.028244 
	C326.689545,237.901703 323.809814,241.565552 318.554230,239.008331 
	C317.823914,238.652969 316.622345,239.249451 315.642639,239.425919 
	C301.735565,241.931107 287.823639,244.409683 273.924561,246.958603 
	C265.041901,248.587585 256.178558,250.321793 246.615280,252.140259 
	C252.075943,258.663361 257.122040,264.411224 261.813354,270.435303 
	C263.649628,272.793243 265.176208,272.757111 267.705536,271.814148 
	C285.636841,265.129242 303.628479,258.606171 321.604095,252.040131 
	C325.760132,250.522034 325.765747,250.537415 328.179474,255.239853 
	C309.669647,266.911865 291.133453,278.600494 272.716187,290.214142 
	C280.918793,300.345886 291.739532,305.149963 304.008026,307.013916 
	C305.395752,307.224762 307.416901,306.121033 308.502319,305.003387 
	C315.457703,297.841339 322.142120,290.415924 329.103363,283.259735 
	C333.238281,279.009003 337.716309,275.092072 342.105072,270.963959 
	C345.081665,272.736664 343.939453,274.767151 342.151978,276.919434 
	C334.286163,286.390564 326.438568,295.876862 318.608124,305.377258 
	C312.204071,313.147034 305.833618,320.944489 299.299774,328.910736 
	C301.614746,330.665375 303.381561,332.191650 305.325897,333.441833 
	C310.410065,336.710815 313.073547,336.486420 317.746094,332.563446 
	C320.391388,330.342529 322.994141,328.070953 325.458588,325.957275 
	C332.655640,331.188080 331.319916,338.552429 330.979309,346.441803 
z"/>
<path fill="#B3B3B3" opacity="1.000000" stroke="none" 
	d="
M86.977524,488.048218 
	C87.808594,488.009247 88.639656,487.936096 89.470726,487.936127 
	C254.011429,487.944672 418.552124,487.958374 583.648132,488.217896 
	C584.372559,488.708252 584.599609,488.872589 584.884583,488.956940 
	C584.884583,515.093079 584.884583,541.229187 584.884583,567.975342 
	C582.330750,568.266174 579.925415,568.779358 577.519958,568.779907 
	C414.552734,568.817200 251.585495,568.808105 88.618263,568.849243 
	C85.248283,568.850098 82.988708,568.707520 83.023682,564.193848 
	C83.210907,540.033569 83.094902,515.870972 83.157433,491.709381 
	C83.160484,490.530731 83.857376,489.353821 84.775131,488.339478 
	C85.871902,488.351318 86.424713,488.199768 86.977524,488.048218 
M323.162720,553.721680 
	C325.874268,554.223572 328.585846,554.725464 332.145813,555.384399 
	C332.145813,538.956177 332.145813,523.614868 332.145813,507.737976 
	C339.407806,507.737976 345.964813,507.737976 352.972595,507.737976 
	C352.505127,505.221039 352.152008,503.319824 351.788818,501.364380 
	C335.488922,501.364380 319.448181,501.364380 303.290466,501.364380 
	C303.290466,503.635406 303.290466,505.540619 303.290466,507.985321 
	C308.865906,507.985321 314.149506,508.018097 319.432312,507.969513 
	C321.611786,507.949493 323.622955,507.940887 322.333496,511.676361 
	C322.237640,524.866943 322.130676,538.057434 322.083679,551.248169 
	C322.081665,551.812927 322.633057,552.379700 323.162720,553.721680 
M212.135712,538.214050 
	C210.408218,545.723022 206.239838,548.967285 198.270142,549.005676 
	C188.694305,549.051819 183.842178,546.410889 182.967957,538.368652 
	C181.840683,527.998657 182.247253,517.461426 182.010040,506.995758 
	C181.966736,505.085114 182.003845,503.172638 182.003845,501.253601 
	C178.704193,501.253601 176.253876,501.253601 172.675095,501.253601 
	C173.202469,515.088257 173.261383,528.691162 174.430466,542.197937 
	C175.011902,548.915405 180.649780,552.850464 186.727371,554.653137 
	C194.691345,557.015320 202.802246,556.756775 210.632004,553.273438 
	C215.874786,550.940979 220.286835,546.954468 220.597855,541.660889 
	C221.382233,528.310852 220.857666,514.883911 220.857666,501.347900 
	C218.603897,501.347900 216.042969,501.347900 212.871429,501.347900 
	C212.871429,513.151062 212.871429,524.610535 212.408157,536.406250 
	C212.288147,536.768066 212.168121,537.129944 212.135712,538.214050 
M440.370239,502.538483 
	C440.541840,504.000671 440.713440,505.462891 441.004181,507.865265 
	C441.004181,523.413330 441.004181,538.961426 441.004181,554.603577 
	C444.326324,554.603577 446.892426,554.603577 450.091492,554.603577 
	C450.091492,550.858337 450.091492,547.408630 450.517670,543.680054 
	C450.374054,543.132996 450.230408,542.585999 449.999237,541.345642 
	C450.027985,540.881592 450.056732,540.417542 450.598633,539.498413 
	C450.430328,538.015991 450.261993,536.533569 449.996521,534.186829 
	C450.038513,532.449890 450.080536,530.712952 450.794067,528.857178 
	C451.379272,526.171875 451.964447,523.486572 453.020477,521.321411 
	C456.553528,531.325073 460.230164,541.281799 463.523834,551.363647 
	C464.401764,554.051086 465.393677,555.214539 468.282532,554.987793 
	C470.964752,554.777222 473.360565,555.184692 474.412750,551.535767 
	C476.205109,545.320129 478.625641,539.285339 480.787354,533.176453 
	C482.939392,527.094849 485.097748,521.015503 487.253387,514.935181 
	C487.615295,515.018066 487.977234,515.100952 488.339172,515.183838 
	C488.339172,528.264404 488.339172,541.345032 488.339172,554.577393 
	C491.335938,554.577393 493.895813,554.577393 496.530426,554.577393 
	C496.530426,536.569031 496.530426,518.904541 496.530426,501.286743 
	C484.737518,500.259949 484.735291,500.259186 481.172058,510.775208 
	C481.013000,511.244629 481.013031,511.768463 480.850006,512.235901 
	C477.111725,522.954895 473.361023,533.669556 469.244629,545.437073 
	C468.230072,542.904236 467.575745,541.436401 467.047150,539.924683 
	C462.991241,528.324341 458.993378,516.703491 454.878174,505.124329 
	C454.361328,503.670105 453.298096,501.296875 452.432220,501.271729 
	C448.588379,501.160156 444.724243,501.749115 440.370239,502.538483 
M362.428925,521.273804 
	C361.191132,529.938477 361.758270,538.365356 367.250000,545.567261 
	C378.532196,560.362793 406.538147,559.663696 417.038757,544.272644 
	C425.447235,531.948120 424.437195,509.306885 405.873352,502.243683 
	C400.498352,500.198578 394.171173,500.148804 388.271973,500.093414 
	C375.708344,499.975433 365.669617,508.263184 362.428925,521.273804 
M275.442474,547.219238 
	C268.975586,549.616089 262.564575,549.515808 255.906693,547.621033 
	C250.342361,546.037354 249.952713,541.175598 248.550140,537.257935 
	C245.594391,537.257935 243.147934,537.257935 240.752304,537.257935 
	C239.630676,543.799805 241.454803,548.827637 247.035599,551.803894 
	C258.471039,557.902527 270.395050,557.960449 281.872772,552.181213 
	C286.949982,549.624695 289.634827,544.803711 289.147400,538.473511 
	C288.714294,532.849121 285.102264,530.409790 280.747437,528.409363 
	C278.640778,527.441589 276.408997,526.733459 274.205597,525.991760 
	C268.071014,523.926697 261.843323,522.104492 255.829361,519.736877 
	C254.187073,519.090332 252.065033,516.810608 252.126617,515.363953 
	C252.216431,513.254333 253.566635,510.496307 255.278580,509.276733 
	C263.687592,503.286346 275.456940,507.140717 278.826599,516.810791 
	C281.347778,516.810791 283.921875,516.810791 286.447266,516.810791 
	C287.335541,510.590485 284.916504,505.571198 279.706482,503.077942 
	C269.433563,498.161835 259.098053,498.616028 249.044983,503.587128 
	C245.377289,505.400787 243.027771,508.586090 242.917969,513.113708 
	C242.726196,521.020752 245.129852,524.888916 252.827332,527.649719 
	C259.855713,530.170532 267.038269,532.262573 274.059021,534.802979 
	C281.691345,537.564636 282.338287,541.722351 275.442474,547.219238 
M523.202759,536.996948 
	C521.258057,536.996948 519.313354,536.996948 517.473511,536.996948 
	C516.215637,545.401733 519.228333,551.038147 526.680115,553.625793 
	C536.031677,556.873413 545.604553,557.122314 555.047729,553.841370 
	C560.954346,551.789124 565.894836,545.352905 565.858337,540.078064 
	C565.811462,533.305725 561.242432,530.181763 555.741150,527.898071 
	C554.668030,527.452576 553.547852,527.116882 552.440063,526.759155 
	C546.113281,524.716370 539.655212,522.995422 533.522461,520.480591 
	C531.285767,519.563477 528.495972,516.840759 528.379211,514.803101 
	C528.264465,512.799500 530.789185,509.838135 532.911438,508.669312 
	C538.527161,505.576385 544.508057,506.319427 550.136353,509.087463 
	C551.535095,509.775360 553.429932,511.245880 553.532288,512.485840 
	C554.168762,520.193909 558.951050,516.881531 562.730164,516.600952 
	C563.398743,509.768921 561.281372,505.710052 555.704041,502.824951 
	C547.518677,498.590790 538.900024,499.057648 530.431946,501.279663 
	C527.251404,502.114197 523.951843,504.269653 521.758606,506.752289 
	C515.677795,513.635437 518.592285,523.428528 527.685608,526.911194 
	C535.442993,529.882263 543.505859,532.059937 551.241577,535.080383 
	C553.376343,535.913879 556.232300,538.508606 556.229980,540.291931 
	C556.227112,542.509949 554.094727,545.573730 552.016235,546.778015 
	C546.260559,550.112976 539.812622,549.742737 533.601929,547.972900 
	C529.275330,546.739868 525.567993,544.546021 525.759338,539.032776 
	C525.781677,538.387451 524.664795,537.702637 523.202759,536.996948 
M120.225174,508.382904 
	C121.329544,508.014191 122.413071,507.556976 123.541664,507.291077 
	C130.956970,505.544159 141.147705,507.921722 143.334808,513.229004 
	C145.672989,518.902832 149.233810,518.262817 155.075424,517.436646 
	C153.232117,513.784851 152.086472,510.431305 150.073441,507.722229 
	C142.884079,498.046936 124.165596,498.258148 115.810417,501.966797 
	C100.204895,508.893707 94.810760,530.204041 104.496033,545.044250 
	C112.614571,557.483826 135.783463,560.004761 146.761414,549.671326 
	C150.843979,545.828491 153.995804,541.575439 153.805725,535.392334 
	C149.421509,534.659729 146.146240,534.217102 143.934982,539.707458 
	C140.484329,548.275146 128.641846,551.656921 120.077347,547.644958 
	C112.361076,544.030273 109.260925,537.614929 109.069824,529.614624 
	C108.861931,520.911133 110.676277,512.992676 120.225174,508.382904 
z"/>
<path fill="#676767" opacity="1.000000" stroke="none" 
	d="
M330.974426,346.048828 
	C331.319916,338.552429 332.655640,331.188080 325.458588,325.957275 
	C322.994141,328.070953 320.391388,330.342529 317.746094,332.563446 
	C313.073547,336.486420 310.410065,336.710815 305.325897,333.441833 
	C303.381561,332.191650 301.614746,330.665375 299.299774,328.910736 
	C305.833618,320.944489 312.204071,313.147034 318.608124,305.377258 
	C326.438568,295.876862 334.286163,286.390564 342.151978,276.919434 
	C343.939453,274.767151 345.081665,272.736664 342.105072,270.963959 
	C337.716309,275.092072 333.238281,279.009003 329.103363,283.259735 
	C322.142120,290.415924 315.457703,297.841339 308.502319,305.003387 
	C307.416901,306.121033 305.395752,307.224762 304.008026,307.013916 
	C291.739532,305.149963 280.918793,300.345886 272.716187,290.214142 
	C291.133453,278.600494 309.669647,266.911865 328.179474,255.239853 
	C325.765747,250.537415 325.760132,250.522034 321.604095,252.040131 
	C303.628479,258.606171 285.636841,265.129242 267.705536,271.814148 
	C265.176208,272.757111 263.649628,272.793243 261.813354,270.435303 
	C257.122040,264.411224 252.075943,258.663361 246.615280,252.140259 
	C256.178558,250.321793 265.041901,248.587585 273.924561,246.958603 
	C287.823639,244.409683 301.735565,241.931107 315.642639,239.425919 
	C316.622345,239.249451 317.823914,238.652969 318.554230,239.008331 
	C323.809814,241.565552 326.689545,237.901703 330.052643,235.028244 
	C339.037201,227.351883 347.976288,219.606628 357.250458,212.290695 
	C362.845673,207.876938 363.290436,201.691895 364.550537,195.615341 
	C364.881134,194.021194 365.164734,191.966370 366.251495,191.045761 
	C394.689301,166.956146 423.232147,142.990555 451.752563,118.998398 
	C465.634583,107.320473 479.590302,95.727699 493.324585,83.878403 
	C496.601349,81.051376 498.930664,80.364433 501.954193,83.984795 
	C513.972168,98.374908 526.084106,112.686951 538.217285,126.980324 
	C541.418701,130.751709 541.039246,133.173874 536.972046,136.571121 
	C495.229767,171.437805 453.704010,206.563721 412.108795,241.606613 
	C409.891785,243.474380 407.934296,244.566010 404.373688,244.490448 
	C399.945435,244.396454 394.745819,246.424606 391.121979,249.174057 
	C380.922119,256.912720 371.393524,265.532257 361.525238,273.713898 
	C358.288788,276.397217 356.272003,279.344360 355.008514,283.656036 
	C351.318268,296.249329 346.673859,308.563690 342.377197,320.978302 
	C339.176208,330.227051 335.934418,339.461670 332.510376,349.277130 
	C331.815796,347.990875 331.397552,347.216339 330.974426,346.048828 
M514.931274,102.657631 
	C513.580444,101.213669 512.229553,99.769707 510.620483,98.049706 
	C466.459595,135.243362 422.526917,172.244812 378.453278,209.364990 
	C380.625580,211.947784 382.308075,213.948166 384.187622,216.182877 
	C385.754852,214.956726 387.069489,213.992218 388.314301,212.944794 
	C412.511627,192.584549 436.710052,172.225586 460.888550,151.843018 
	C478.576569,136.932022 496.255035,122.009430 513.854614,106.994530 
	C514.761841,106.220543 514.885803,104.528404 514.931274,102.657631 
M489.244995,100.766159 
	C493.687073,96.987419 498.129181,93.208687 502.928802,89.125824 
	C500.837402,87.161903 499.343018,85.758606 497.839996,84.347176 
	C496.485474,85.420502 495.555298,86.119415 494.666443,86.867355 
	C453.084351,121.857330 411.503510,156.848816 369.931213,191.850418 
	C366.508453,194.732178 366.969238,196.524536 372.083405,199.395493 
	C410.879120,166.724304 449.782684,133.962326 489.244995,100.766159 
M452.394257,195.885880 
	C435.911469,209.718491 419.428711,223.551117 403.201141,237.169571 
	C405.907135,243.012329 408.655884,240.619659 411.557281,238.172470 
	C452.473877,203.661377 493.384247,169.142776 534.388367,134.735947 
	C537.856201,131.826065 537.525085,129.895126 533.667053,127.307732 
	C506.759369,149.996216 479.835541,172.698288 452.394257,195.885880 
M380.142792,200.717514 
	C378.750610,202.511032 377.358398,204.304535 375.966217,206.098053 
	C378.018097,205.229187 380.435181,204.795837 382.067841,203.426971 
	C413.052643,177.448761 443.948059,151.363907 474.854828,125.292625 
	C486.252655,115.677994 497.631836,106.041229 509.019531,96.414558 
	C508.747650,95.857689 508.475769,95.300819 508.203888,94.743950 
	C506.667694,95.369247 504.844727,95.653496 503.636749,96.669151 
	C462.620667,131.154526 421.663055,165.709412 380.142792,200.717514 
M446.355469,172.119751 
	C445.553406,173.067337 444.751343,174.014908 443.949249,174.962494 
	C444.553223,175.305420 445.157196,175.648346 445.761169,175.991272 
	C446.184296,174.734375 446.607452,173.477478 446.355469,172.119751 
M515.846252,131.605652 
	C515.203369,131.345642 514.560486,131.085632 513.917603,130.825623 
	C513.824341,131.372757 513.731140,131.919876 513.637878,132.467010 
	C514.318420,132.385727 514.998901,132.304443 515.846252,131.605652 
M334.490326,242.859161 
	C334.793884,242.431625 335.097473,242.004089 335.401062,241.576553 
	C334.951813,241.462692 334.502563,241.348831 334.053314,241.234985 
	C333.999573,241.735458 333.945862,242.235947 334.490326,242.859161 
M313.703583,326.568390 
	C313.989349,326.295624 314.275116,326.022888 314.560883,325.750122 
	C314.447754,325.631897 314.242523,325.404602 314.234772,325.411163 
	C313.933350,325.665710 313.649994,325.941559 313.703583,326.568390 
M334.703613,248.568481 
	C334.989349,248.295685 335.275116,248.022888 335.560883,247.750107 
	C335.447784,247.631836 335.242554,247.404510 335.234802,247.411041 
	C334.933411,247.665634 334.650024,247.941559 334.703613,248.568481 
z"/>
<path fill="#676767" opacity="1.000000" stroke="none" 
	d="
M411.843628,433.019928 
	C411.892334,434.208344 411.941010,435.396759 411.502136,436.846527 
	C410.010162,436.569366 408.868439,436.191528 408.022095,435.468140 
	C396.078979,425.260101 384.200287,414.976532 372.223419,404.808502 
	C371.103485,403.857727 369.424622,403.565277 367.673096,403.015686 
	C366.891876,403.746704 366.442841,404.429260 365.721008,405.318298 
	C365.894562,407.116211 365.892303,409.084991 366.861237,410.236786 
	C372.462585,416.895386 378.293182,423.361115 384.302246,430.112457 
	C389.414825,435.782349 394.375610,441.143463 399.096405,446.708160 
	C403.236694,451.588501 407.107758,456.697205 411.097778,461.705017 
	C410.624023,461.798126 410.150238,461.891205 409.230530,461.767944 
	C408.533600,461.660828 408.282623,461.770050 408.031647,461.879272 
	C388.708130,461.894684 369.384644,461.910065 349.539978,461.530701 
	C338.261017,448.990997 327.508362,436.841461 316.742920,424.703308 
	C312.189789,419.569580 307.609680,414.459717 303.041840,409.339020 
	C302.676971,409.504028 302.312103,409.669006 301.947235,409.834015 
	C301.947235,427.202515 301.947235,444.571014 301.947235,461.939514 
	C286.821777,461.983459 271.696198,462.055664 256.571045,462.007721 
	C255.563873,462.004547 254.559586,461.089233 253.958847,460.158234 
	C254.193848,459.122925 254.023972,458.527588 253.854095,457.932251 
	C253.854095,457.932251 253.645065,457.503693 253.925842,457.179016 
	C254.066620,456.550873 253.926620,456.247437 253.786621,455.943970 
	C253.705933,455.454132 253.554382,454.964233 253.554611,454.474426 
	C253.581451,399.296173 253.619629,344.117889 254.185593,288.483978 
	C255.304794,288.031067 255.895523,288.033844 256.486267,288.036621 
	C265.697723,298.066681 274.994690,308.019806 284.104218,318.141571 
	C309.133911,345.952637 334.086426,373.833160 359.063232,401.691803 
	C360.363495,403.142090 361.605774,404.644348 362.875031,406.122437 
	C363.328156,405.970856 363.781281,405.819275 364.234406,405.667694 
	C364.234406,399.114441 364.234406,392.561157 364.639832,385.662659 
	C365.529175,387.522522 366.013123,389.727570 366.535889,392.109467 
	C366.922638,391.230896 367.216187,390.563995 368.011932,388.756287 
	C368.011932,391.671722 368.011932,393.325623 368.156128,395.299225 
	C370.939575,397.982758 373.563904,400.363495 376.220795,402.707336 
	C384.535217,410.042297 392.813416,417.419556 401.207489,424.662384 
	C404.617676,427.604889 408.290375,430.243195 411.843628,433.019928 
z"/>
<path fill="#B3B3B3" opacity="1.000000" stroke="none" 
	d="
M173.087372,373.445557 
	C178.136993,377.674500 183.075745,382.044861 188.256363,386.106720 
	C206.150726,400.136841 224.129440,414.059387 242.365662,428.248230 
	C241.535278,429.680237 241.003036,431.100739 240.059082,432.151337 
	C223.042465,451.090149 202.060715,462.037292 176.392487,462.980255 
	C143.525314,464.187683 117.541039,450.675873 98.645233,424.282318 
	C89.994217,412.198669 85.281807,398.137024 83.812149,382.990326 
	C82.362267,368.047424 84.289619,353.718414 90.087181,340.091797 
	C93.104980,332.998749 97.834808,326.634094 102.401215,320.171143 
	C124.801353,337.317566 146.579941,354.248352 168.409851,371.112671 
	C169.762497,372.157623 171.518845,372.680023 173.087372,373.445557 
z"/>
<path fill="#B3B3B3" opacity="1.000000" stroke="none" 
	d="
M514.812439,373.772522 
	C538.130432,391.943359 561.448364,410.114197 585.495728,428.853424 
	C580.763428,433.602600 576.577637,438.534058 571.676392,442.604065 
	C538.666748,470.015381 490.372986,470.096710 457.768402,442.506866 
	C440.347290,427.765167 429.611084,409.163910 426.494019,386.905731 
	C423.278931,363.947540 428.044647,342.211517 441.734650,322.958313 
	C442.366943,322.069122 443.478027,321.520325 445.073944,320.882416 
	C455.273163,328.221405 464.761597,335.494904 474.256744,342.759613 
	C487.772705,353.100616 501.293640,363.435211 514.812439,373.772522 
z"/>
<path fill="#B3B3B3" opacity="1.000000" stroke="none" 
	d="
M364.381317,355.074341 
	C364.297089,334.416626 364.211578,313.758942 364.130127,293.101227 
	C364.119110,290.305573 364.128632,287.509888 364.128632,284.023071 
	C367.330475,284.023071 370.096558,284.023407 372.862610,284.023010 
	C384.862549,284.021271 396.862549,284.039337 408.862366,284.000092 
	C411.184235,283.992493 413.436066,283.844391 412.338837,287.808533 
	C411.586792,290.064514 411.050262,291.793854 411.047760,293.523956 
	C410.998322,327.457428 411.010956,361.391022 411.010956,395.324585 
	C411.010956,396.879303 411.010956,398.434052 411.010956,400.957153 
	C404.013763,395.240845 397.807556,390.177856 391.609375,385.105133 
	C385.595306,380.183075 379.804749,374.951050 373.504578,370.428284 
	C369.282684,367.397430 366.487122,364.254181 366.852570,358.741760 
	C366.929626,357.578979 365.250977,356.299866 364.381317,355.074341 
z"/>
<path fill="#666666" opacity="1.000000" stroke="none" 
	d="
M486.853027,288.390656 
	C516.458923,276.703278 558.544678,286.294128 579.180847,310.198578 
	C569.397888,319.706848 559.543091,329.284943 549.215332,338.749695 
	C546.494507,338.424774 544.246582,338.213196 541.911438,337.831512 
	C541.549011,337.773865 541.273865,337.886292 540.635071,337.992310 
	C536.035828,335.011108 531.567078,332.315552 527.608215,329.009369 
	C515.546265,318.936096 503.659943,308.651764 491.766266,298.378967 
	C490.308167,297.119568 489.236542,295.417419 487.955383,293.946899 
	C487.088623,292.951996 486.168518,292.003571 485.558624,291.343994 
	C485.918610,290.522675 486.385803,289.456665 486.853027,288.390656 
z"/>
<path fill="#666666" opacity="1.000000" stroke="none" 
	d="
M190.086670,285.821564 
	C191.512344,286.103180 192.938019,286.384796 194.920883,287.123749 
	C196.403534,287.692413 197.329010,287.803741 198.254486,287.915070 
	C198.945175,287.938660 199.635864,287.962250 200.752472,288.188721 
	C201.446548,288.291412 201.714722,288.191223 201.982880,288.091034 
	C215.164246,292.243378 226.431168,299.453888 236.368576,309.279419 
	C227.683838,318.087830 219.231384,326.660614 210.370087,335.129364 
	C209.856171,334.948456 209.751099,334.871552 209.646042,334.794647 
	C209.751999,335.044098 209.857956,335.293549 209.963898,335.542999 
	C209.963898,335.542999 209.720108,335.801575 209.303375,335.519714 
	C208.271484,334.290405 207.656311,333.342926 206.349274,331.329803 
	C206.701508,334.477570 206.907608,336.319305 207.113693,338.161011 
	C207.113693,338.161011 207.069885,338.054657 206.750229,338.049530 
	C204.948807,339.337067 203.467056,340.629730 201.738190,341.945892 
	C201.491074,341.969360 200.995331,341.996338 200.625366,341.956696 
	C199.219086,341.187714 198.025620,340.606934 197.172562,339.704346 
	C192.452255,334.709930 188.145721,329.272064 183.073135,324.674988 
	C175.028717,317.384674 166.505310,310.621490 158.153107,303.673065 
	C155.755936,301.678802 152.846008,300.149750 150.901428,297.802399 
	C148.685287,295.127350 143.432327,295.239319 143.573624,290.705841 
	C146.009674,289.336578 148.000702,288.217438 149.991730,287.098297 
	C150.420242,287.042542 150.848770,286.986816 151.806030,287.168518 
	C155.215073,286.639282 158.095352,285.872620 160.975647,285.105957 
	C161.411423,285.057251 161.847198,285.008545 162.892548,285.235596 
	C169.700348,285.275757 175.898575,285.040100 182.096817,284.804443 
	C183.463348,284.860931 184.829880,284.917450 186.741470,285.285339 
	C188.219910,285.671722 189.153290,285.746643 190.086670,285.821564 
z"/>
<path fill="#B3B3B3" opacity="1.000000" stroke="none" 
	d="
M302.415955,462.003052 
	C301.947235,444.571014 301.947235,427.202515 301.947235,409.834015 
	C302.312103,409.669006 302.676971,409.504028 303.041840,409.339020 
	C307.609680,414.459717 312.189789,419.569580 316.742920,424.703308 
	C327.508362,436.841461 338.261017,448.990997 349.084045,461.470764 
	C333.727692,461.892609 318.306183,461.979614 302.415955,462.003052 
z"/>
<path fill="#454545" opacity="1.000000" stroke="none" 
	d="
M188.288345,357.560760 
	C187.256577,358.682648 186.224792,359.804535 184.527222,361.013519 
	C182.123047,361.878540 180.384644,362.656433 178.455261,363.519806 
	C177.974197,362.724274 177.465057,361.882355 176.927185,360.694946 
	C174.655594,358.453278 172.386078,356.587616 170.174622,354.655487 
	C161.232132,346.842682 152.383133,338.920959 143.355835,331.207733 
	C133.599380,322.871460 123.682503,314.722900 113.835587,306.492493 
	C117.979492,303.319000 122.123398,300.145508 126.604965,297.286316 
	C126.463593,298.743744 125.984558,299.886902 125.635040,300.720947 
	C127.199387,302.020447 128.459198,302.999756 129.644592,304.062134 
	C140.352951,313.659119 151.182739,323.126160 161.706024,332.922302 
	C170.549088,341.154358 181.642624,346.966156 188.288345,357.560760 
z"/>
<path fill="#5D5D5D" opacity="1.000000" stroke="none" 
	d="
M486.505615,288.482117 
	C486.385803,289.456665 485.918610,290.522675 485.558624,291.343994 
	C486.168518,292.003571 487.088623,292.951996 487.955383,293.946899 
	C489.236542,295.417419 490.308167,297.119568 491.766266,298.378967 
	C503.659943,308.651764 515.546265,318.936096 527.608215,329.009369 
	C531.567078,332.315552 536.035828,335.011108 540.635742,337.992920 
	C541.000000,338.000000 541.002441,338.001221 541.016968,338.253906 
	C541.190186,338.773285 541.348938,339.040009 541.507690,339.306732 
	C541.672607,338.870544 541.837524,338.434326 542.001221,337.999084 
	C542.000000,338.000000 541.998657,338.001617 541.998657,338.001617 
	C544.246582,338.213196 546.494507,338.424774 548.918457,338.909912 
	C546.611023,341.732697 544.127563,344.281921 541.188171,346.721039 
	C540.515015,346.827972 540.297729,347.045013 540.080444,347.262054 
	C540.100769,347.575653 539.983032,347.823700 539.158691,348.042114 
	C536.734314,347.730560 534.386902,347.983948 533.104858,346.935059 
	C526.407654,341.455811 519.993774,335.631165 513.455872,329.956116 
	C508.967072,326.059814 504.258575,322.398285 499.962524,318.302216 
	C491.489197,310.223358 483.234131,301.915619 474.888824,293.702515 
	C475.673676,293.431915 476.458557,293.161346 477.781921,293.148346 
	C481.313507,294.610107 480.840759,292.324982 481.034058,290.710449 
	C482.742096,289.998138 484.450134,289.285858 486.505615,288.482117 
z"/>
<path fill="#525252" opacity="1.000000" stroke="none" 
	d="
M188.601059,357.413635 
	C181.642624,346.966156 170.549088,341.154358 161.706024,332.922302 
	C151.182739,323.126160 140.352951,313.659119 129.644592,304.062134 
	C128.459198,302.999756 127.199387,302.020447 125.635040,300.720947 
	C125.984558,299.886902 126.463593,298.743744 126.961960,297.263092 
	C129.247330,295.567688 131.513367,294.209808 134.463776,292.895996 
	C135.839386,293.562561 137.224762,294.552887 137.118744,294.752960 
	C135.241837,298.295074 138.155792,299.832123 140.061615,301.470184 
	C144.174072,305.004822 148.645401,308.121857 152.758560,311.655762 
	C157.719742,315.918243 162.300507,320.630463 167.333832,324.800507 
	C176.651489,332.519989 187.044540,339.106689 193.129578,350.812561 
	C193.535645,349.503326 193.769028,348.750793 194.001221,347.999146 
	C194.000000,348.000000 193.998169,348.002441 194.349213,347.966614 
	C196.914612,346.759705 199.128937,345.588623 201.343277,344.417511 
	C197.200104,348.700531 193.056946,352.983521 188.601059,357.413635 
z"/>
<path fill="#A1A1A1" opacity="1.000000" stroke="none" 
	d="
M364.299438,355.530701 
	C365.250977,356.299866 366.929626,357.578979 366.852570,358.741760 
	C366.487122,364.254181 369.282684,367.397430 373.504578,370.428284 
	C379.804749,374.951050 385.595306,380.183075 391.609375,385.105133 
	C397.807556,390.177856 404.013763,395.240845 411.010956,400.957153 
	C411.010956,398.434052 411.010956,396.879303 411.010956,395.324585 
	C411.010956,361.391022 410.998322,327.457428 411.047760,293.523956 
	C411.050262,291.793854 411.586792,290.064514 412.224121,288.223114 
	C412.662628,294.747070 412.817413,301.382660 412.829773,308.018494 
	C412.892822,341.897797 412.921204,375.777222 412.949188,409.656586 
	C412.950165,410.813782 412.817993,411.971069 412.171570,413.531921 
	C410.958984,413.818054 410.141327,413.913940 409.714081,413.550629 
	C404.503540,409.120148 399.331207,404.644104 394.186859,400.136627 
	C386.952148,393.797516 379.757294,387.412933 372.528442,381.067139 
	C369.832092,378.700165 367.088074,376.387482 364.365814,374.050049 
	C364.316376,368.029053 364.266968,362.008087 364.299438,355.530701 
z"/>
<path fill="#525252" opacity="1.000000" stroke="none" 
	d="
M474.531769,293.759583 
	C483.234131,301.915619 491.489197,310.223358 499.962524,318.302216 
	C504.258575,322.398285 508.967072,326.059814 513.455872,329.956116 
	C519.993774,335.631165 526.407654,341.455811 533.104858,346.935059 
	C534.386902,347.983948 536.734314,347.730560 538.950073,348.088806 
	C537.993469,349.789795 536.676941,351.479919 534.704346,353.078827 
	C533.257446,352.462463 532.466492,351.937347 530.632996,350.720032 
	C531.391785,353.066498 531.757385,354.197021 532.122925,355.327545 
	C531.718750,355.886414 531.314636,356.445282 530.289246,356.999481 
	C517.351746,346.075317 505.111542,335.068329 492.693512,324.265808 
	C483.769287,316.502563 474.607605,309.012268 465.537170,301.387909 
	C465.581604,301.242584 465.979401,299.941437 466.377197,298.640320 
	C468.976379,297.032440 471.575562,295.424561 474.531769,293.759583 
z"/>
<path fill="#5D5D5D" opacity="1.000000" stroke="none" 
	d="
M201.327667,344.407928 
	C199.128937,345.588623 196.914612,346.759705 194.296249,347.826782 
	C193.806259,347.672913 193.720306,347.623047 193.634338,347.573212 
	C193.757034,347.714905 193.879745,347.856567 194.002441,347.998260 
	C193.769028,348.750793 193.535645,349.503326 193.129578,350.812561 
	C187.044540,339.106689 176.651489,332.519989 167.333832,324.800507 
	C162.300507,320.630463 157.719742,315.918243 152.758560,311.655762 
	C148.645401,308.121857 144.174072,305.004822 140.061615,301.470184 
	C138.155792,299.832123 135.241837,298.295074 137.118744,294.752960 
	C137.224762,294.552887 135.839386,293.562561 134.798981,292.864410 
	C139.370575,290.839508 144.291321,288.890198 149.601898,287.019592 
	C148.000702,288.217438 146.009674,289.336578 143.573624,290.705841 
	C143.432327,295.239319 148.685287,295.127350 150.901428,297.802399 
	C152.846008,300.149750 155.755936,301.678802 158.153107,303.673065 
	C166.505310,310.621490 175.028717,317.384674 183.073135,324.674988 
	C188.145721,329.272064 192.452255,334.709930 197.172562,339.704346 
	C198.025620,340.606934 199.219086,341.187714 200.638931,342.356628 
	C201.123611,343.320801 201.224762,343.845367 201.325897,344.369965 
	C201.325897,344.369965 201.312042,344.398346 201.327667,344.407928 
z"/>
<path fill="#232323" opacity="1.000000" stroke="none" 
	d="
M515.011719,373.507202 
	C501.293640,363.435211 487.772705,353.100616 474.256744,342.759613 
	C464.761597,335.494904 455.273163,328.221405 445.435181,320.969696 
	C445.623199,319.431152 445.768005,317.536346 446.768219,316.384003 
	C449.385651,313.368500 452.376801,310.677399 455.607819,308.154358 
	C456.329895,309.302795 456.663116,310.153839 456.948669,311.383392 
	C456.551697,313.168579 456.202332,314.575256 456.043060,315.216614 
	C458.921692,317.731293 461.380310,319.592987 463.488403,321.790924 
	C466.303131,324.725647 468.438721,328.462280 471.618286,330.854675 
	C474.867157,333.299286 478.368530,335.027405 480.695709,338.780762 
	C482.719269,342.044403 485.765259,344.857605 488.851685,347.229156 
	C492.200989,349.802643 496.460785,351.230774 499.667603,353.935944 
	C501.750275,355.692810 502.659515,358.840668 504.094482,361.365326 
	C503.771027,361.723785 503.447540,362.082214 503.124084,362.440674 
	C505.486755,362.440674 507.849426,362.440674 510.350983,362.440674 
	C511.595703,365.473389 513.415771,367.489075 517.419800,365.013550 
	C518.983215,365.035095 520.120178,365.063354 521.257080,365.091583 
	C519.241699,367.808350 517.226318,370.525116 515.011719,373.507202 
z"/>
<path fill="#454545" opacity="1.000000" stroke="none" 
	d="
M466.066376,298.724854 
	C465.979401,299.941437 465.581604,301.242584 465.537170,301.387909 
	C474.607605,309.012268 483.769287,316.502563 492.693512,324.265808 
	C505.111542,335.068329 517.351746,346.075317 530.029724,357.057800 
	C529.157349,358.704437 527.923218,360.288055 526.242859,361.676300 
	C524.780334,360.444061 523.865479,359.277374 522.731262,358.391571 
	C515.651367,352.862457 508.340149,347.613678 501.459869,341.849182 
	C494.242584,335.802338 487.426971,329.276459 480.427979,322.968628 
	C477.028351,319.904724 474.068390,315.823151 470.086914,314.067383 
	C464.987457,311.818604 462.398590,307.930695 459.641510,303.786346 
	C461.679535,302.127350 463.717529,300.468384 466.066376,298.724854 
z"/>
<path fill="#232323" opacity="1.000000" stroke="none" 
	d="
M173.358078,373.127563 
	C171.518845,372.680023 169.762497,372.157623 168.409851,371.112671 
	C146.579941,354.248352 124.801353,337.317566 102.725830,320.181824 
	C105.319580,316.342896 108.198624,312.724030 111.650024,309.096954 
	C112.493889,309.393616 112.765396,309.698517 112.753998,310.225525 
	C111.792381,312.769653 111.113663,315.091705 110.537247,317.063721 
	C114.303162,319.248932 118.217506,320.545746 120.726204,323.180786 
	C125.799522,328.509674 129.740692,334.929962 137.314514,337.392853 
	C138.705627,337.845184 140.689529,339.434509 140.733597,340.564026 
	C140.939133,345.832031 145.235291,346.872803 148.450455,349.363861 
	C152.942245,352.843964 156.844742,357.084717 160.859055,361.052917 
	C160.812683,361.070984 160.906647,361.036102 161.375504,361.004822 
	C163.482925,361.823120 165.252991,362.567474 166.939972,363.467529 
	C170.209824,365.212158 173.432938,367.044342 176.675415,368.840240 
	C175.659866,370.163361 174.644318,371.486481 173.358078,373.127563 
z"/>
<path fill="#393939" opacity="1.000000" stroke="none" 
	d="
M459.317780,303.823578 
	C462.398590,307.930695 464.987457,311.818604 470.086914,314.067383 
	C474.068390,315.823151 477.028351,319.904724 480.427979,322.968628 
	C487.426971,329.276459 494.242584,335.802338 501.459869,341.849182 
	C508.340149,347.613678 515.651367,352.862457 522.731262,358.391571 
	C523.865479,359.277374 524.780334,360.444061 525.930786,361.808228 
	C524.689697,363.154358 523.314331,364.173096 521.598022,365.141724 
	C520.120178,365.063354 518.983215,365.035095 517.420898,364.635315 
	C516.996155,363.508362 516.996826,362.752960 517.139038,361.945129 
	C517.187805,361.929413 517.095154,361.966125 516.654114,361.967773 
	C515.495972,361.394714 514.606506,360.945831 513.888855,360.304688 
	C507.770599,354.838806 501.753906,349.257294 495.570099,343.867310 
	C487.030487,336.423889 478.381042,329.106232 469.760162,321.756348 
	C465.527039,318.147339 461.252258,314.587158 456.996338,311.004883 
	C456.663116,310.153839 456.329895,309.302795 455.967407,308.107849 
	C456.956787,306.462921 457.975403,305.161865 459.317780,303.823578 
z"/>
<path fill="#2B2B2B" opacity="1.000000" stroke="none" 
	d="
M176.684799,368.839233 
	C173.432938,367.044342 170.209824,365.212158 166.939972,363.467529 
	C165.252991,362.567474 163.482925,361.823120 161.375198,361.004211 
	C161.000000,361.000000 160.999390,361.000000 160.999390,361.000000 
	C156.844742,357.084717 152.942245,352.843964 148.450455,349.363861 
	C145.235291,346.872803 140.939133,345.832031 140.733597,340.564026 
	C140.689529,339.434509 138.705627,337.845184 137.314514,337.392853 
	C129.740692,334.929962 125.799522,328.509674 120.726204,323.180786 
	C118.217506,320.545746 114.303162,319.248932 110.537247,317.063721 
	C111.113663,315.091705 111.792381,312.769653 113.013016,310.445557 
	C120.468338,316.675903 127.297821,323.004669 134.314804,329.118195 
	C144.898026,338.338806 155.658112,347.356476 166.242493,356.575806 
	C169.379669,359.308411 171.933075,363.013092 176.955917,361.040405 
	C177.465057,361.882355 177.974197,362.724274 178.455261,363.519806 
	C180.384644,362.656433 182.123047,361.878540 184.254852,361.097412 
	C182.909912,362.958862 181.171555,364.823486 178.822235,366.717651 
	C177.764008,367.433899 177.316727,368.120605 176.869446,368.807312 
	C176.869446,368.807312 176.694183,368.838257 176.684799,368.839233 
z"/>
<path fill="#919191" opacity="1.000000" stroke="none" 
	d="
M364.285461,374.492310 
	C367.088074,376.387482 369.832092,378.700165 372.528442,381.067139 
	C379.757294,387.412933 386.952148,393.797516 394.186859,400.136627 
	C399.331207,404.644104 404.503540,409.120148 409.714081,413.550629 
	C410.141327,413.913940 410.958984,413.818054 411.997070,413.896210 
	C412.485016,415.920593 412.571136,417.984314 412.150269,420.502258 
	C410.580627,420.606781 409.267975,420.542786 408.492828,419.864532 
	C396.771637,409.608673 385.187592,399.195129 373.404297,389.011871 
	C370.668457,386.647552 367.310211,385.003448 364.238373,383.027954 
	C364.227264,380.330139 364.216187,377.632355 364.285461,374.492310 
z"/>
<path fill="#393939" opacity="1.000000" stroke="none" 
	d="
M176.927185,360.694946 
	C171.933075,363.013092 169.379669,359.308411 166.242493,356.575806 
	C155.658112,347.356476 144.898026,338.338806 134.314804,329.118195 
	C127.297821,323.004669 120.468338,316.675903 113.295914,310.223450 
	C112.765396,309.698517 112.493889,309.393616 111.941818,308.952026 
	C112.188789,308.136902 112.716324,307.458527 113.539726,306.636322 
	C123.682503,314.722900 133.599380,322.871460 143.355835,331.207733 
	C152.383133,338.920959 161.232132,346.842682 170.174622,354.655487 
	C172.386078,356.587616 174.655594,358.453278 176.927185,360.694946 
z"/>
<path fill="#848484" opacity="1.000000" stroke="none" 
	d="
M364.181946,383.374908 
	C367.310211,385.003448 370.668457,386.647552 373.404297,389.011871 
	C385.187592,399.195129 396.771637,409.608673 408.492828,419.864532 
	C409.267975,420.542786 410.580627,420.606781 412.055786,420.932343 
	C412.609344,422.694733 412.750427,424.481262 412.483154,426.634644 
	C410.462097,426.240845 408.609924,425.769592 407.278870,424.668457 
	C402.077698,420.365814 397.047729,415.856628 391.942200,411.437958 
	C385.627106,405.972473 379.386169,400.414032 372.888977,395.173737 
	C371.872406,394.353821 369.667419,395.007355 368.011932,394.979553 
	C368.011932,393.325623 368.011932,391.671722 368.011932,388.756287 
	C367.216187,390.563995 366.922638,391.230896 366.535889,392.109467 
	C366.013123,389.727570 365.529175,387.522522 364.706909,385.205078 
	C364.287567,384.635742 364.206543,384.178802 364.181946,383.374908 
z"/>
<path fill="#767676" opacity="1.000000" stroke="none" 
	d="
M368.156128,395.299255 
	C369.667419,395.007355 371.872406,394.353821 372.888977,395.173737 
	C379.386169,400.414032 385.627106,405.972473 391.942200,411.437958 
	C397.047729,415.856628 402.077698,420.365814 407.278870,424.668457 
	C408.609924,425.769592 410.462097,426.240845 412.430969,427.012695 
	C412.519012,428.765198 412.250946,430.506531 411.913239,432.633911 
	C408.290375,430.243195 404.617676,427.604889 401.207489,424.662384 
	C392.813416,417.419556 384.535217,410.042297 376.220795,402.707336 
	C373.563904,400.363495 370.939575,397.982758 368.156128,395.299255 
z"/>
<path fill="#525252" opacity="1.000000" stroke="none" 
	d="
M365.993835,405.111816 
	C366.442841,404.429260 366.891876,403.746704 367.705109,403.365448 
	C372.076843,407.307922 376.062805,410.973175 380.096252,414.585419 
	C389.466980,422.977509 398.834900,431.373291 408.286560,439.673523 
	C409.181519,440.459442 410.660065,440.580811 411.867706,441.010681 
	C411.899048,442.216644 411.930359,443.422607 411.398621,444.777557 
	C409.554871,444.286743 408.274231,443.646942 406.747925,443.002350 
	C406.502228,442.997528 406.010864,442.988403 405.975403,442.649261 
	C404.964996,441.535980 403.990112,440.761871 403.007599,439.993866 
	C403.000000,440.000000 403.012299,439.984314 402.976929,439.641968 
	C401.627289,438.200165 400.313049,437.100677 398.715088,435.865631 
	C397.294647,434.811859 396.157928,433.893707 394.981079,432.632599 
	C391.961029,429.859253 388.981110,427.428864 386.000610,424.999207 
	C386.000000,425.000000 386.001709,424.997589 385.966003,424.643066 
	C384.288727,423.189911 382.647095,422.091309 380.699585,420.831818 
	C378.718048,418.992462 376.979126,417.371857 375.380249,415.623230 
	C372.210602,412.156799 369.118195,408.619690 365.993835,405.111816 
z"/>
<path fill="#2B2B2B" opacity="1.000000" stroke="none" 
	d="
M411.482330,461.711304 
	C407.107758,456.697205 403.236694,451.588501 399.096405,446.708160 
	C394.375610,441.143463 389.414825,435.782349 384.328186,429.842773 
	C385.065369,429.235229 386.032684,429.117615 387.256409,429.108826 
	C387.997528,429.489990 388.482269,429.762238 388.977417,430.404083 
	C389.061401,431.260834 388.952667,431.946075 389.235260,432.206146 
	C395.909515,438.348083 402.588989,444.486206 409.388824,450.487488 
	C410.111511,451.125305 411.584290,450.913147 412.709106,451.095306 
	C412.428375,454.636078 412.147614,458.176849 411.482330,461.711304 
z"/>
<path fill="#5D5D5D" opacity="1.000000" stroke="none" 
	d="
M411.938293,440.701477 
	C410.660065,440.580811 409.181519,440.459442 408.286560,439.673523 
	C398.834900,431.373291 389.466980,422.977509 380.096252,414.585419 
	C376.062805,410.973175 372.076843,407.307922 368.037292,403.316956 
	C369.424622,403.565277 371.103485,403.857727 372.223419,404.808502 
	C384.200287,414.976532 396.078979,425.260101 408.022095,435.468140 
	C408.868439,436.191528 410.010162,436.569366 411.424896,437.195557 
	C411.893158,438.319611 411.951019,439.355927 411.938293,440.701477 
z"/>
<path fill="#393939" opacity="1.000000" stroke="none" 
	d="
M412.800964,450.778442 
	C411.584290,450.913147 410.111511,451.125305 409.388824,450.487488 
	C402.588989,444.486206 395.909515,438.348083 389.235260,432.206146 
	C388.952667,431.946075 389.061401,431.260834 389.326294,430.425476 
	C391.450226,431.043396 393.235718,432.009460 395.021210,432.975525 
	C396.157928,433.893707 397.294647,434.811859 398.719116,436.242493 
	C400.342010,437.831421 401.677155,438.907867 403.012299,439.984314 
	C403.012299,439.984314 403.000000,440.000000 403.034790,440.336487 
	C404.049988,441.444763 405.030426,442.216583 406.010864,442.988403 
	C406.010864,442.988403 406.502228,442.997528 406.797974,443.386993 
	C408.584045,444.296326 410.074402,444.816223 411.564789,445.336121 
	C412.007446,447.044586 412.450134,448.753113 412.800964,450.778442 
z"/>
<path fill="#5D5D5D" opacity="1.000000" stroke="none" 
	d="
M181.906815,284.485657 
	C175.898575,285.040100 169.700348,285.275757 163.219345,285.193054 
	C169.196655,284.638763 175.456741,284.402802 181.906815,284.485657 
z"/>
<path fill="#5D5D5D" opacity="1.000000" stroke="none" 
	d="
M160.556396,285.035278 
	C158.095352,285.872620 155.215073,286.639282 152.127594,287.124237 
	C154.659332,286.216553 157.398239,285.590576 160.556396,285.035278 
z"/>
<path fill="#5D5D5D" opacity="1.000000" stroke="none" 
	d="
M201.985306,341.922424 
	C203.467056,340.629730 204.948807,339.337067 206.799805,338.078705 
	C205.727615,339.815948 204.286209,341.518890 202.467926,342.976685 
	C202.055801,342.461823 202.020554,342.192108 201.985306,341.922424 
z"/>
<path fill="#5D5D5D" opacity="1.000000" stroke="none" 
	d="
M207.371765,338.049316 
	C206.907608,336.319305 206.701508,334.477570 206.349274,331.329803 
	C207.656311,333.342926 208.271484,334.290405 209.129547,335.556519 
	C208.791565,336.562622 208.210693,337.250092 207.371765,338.049316 
z"/>
<path fill="#454545" opacity="1.000000" stroke="none" 
	d="
M411.531525,445.313599 
	C410.074402,444.816223 408.584045,444.296326 407.043640,443.391815 
	C408.274231,443.646942 409.554871,444.286743 411.182526,445.071777 
	C411.529541,445.217041 411.498260,445.291046 411.531525,445.313599 
z"/>
<path fill="#454545" opacity="1.000000" stroke="none" 
	d="
M532.439453,355.206482 
	C531.757385,354.197021 531.391785,353.066498 530.632996,350.720032 
	C532.466492,351.937347 533.257446,352.462463 534.392639,353.144745 
	C534.076599,353.896423 533.416260,354.490936 532.439453,355.206482 
z"/>
<path fill="#525252" opacity="1.000000" stroke="none" 
	d="
M480.701599,290.775452 
	C480.840759,292.324982 481.313507,294.610107 478.110962,293.110596 
	C478.724091,292.156982 479.546600,291.498718 480.701599,290.775452 
z"/>
<path fill="#5D5D5D" opacity="1.000000" stroke="none" 
	d="
M189.995850,285.562073 
	C189.153290,285.746643 188.219910,285.671722 187.150818,285.317017 
	C187.978409,285.125702 188.941711,285.214142 189.995850,285.562073 
z"/>
<path fill="#232323" opacity="1.000000" stroke="none" 
	d="
M177.112869,368.800934 
	C177.316727,368.120605 177.764008,367.433899 178.501770,366.834045 
	C178.313614,367.545410 177.834961,368.169983 177.112869,368.800934 
z"/>
<path fill="#5D5D5D" opacity="1.000000" stroke="none" 
	d="
M198.156921,287.652405 
	C197.329010,287.803741 196.403534,287.692413 195.246140,287.314117 
	C196.029251,287.161316 197.044312,287.275513 198.156921,287.652405 
z"/>
<path fill="#5D5D5D" opacity="1.000000" stroke="none" 
	d="
M256.324249,287.659424 
	C255.895523,288.033844 255.304794,288.031067 254.273010,288.022766 
	C253.981583,287.287262 254.131210,286.557312 254.280823,285.827393 
	C254.907959,286.312347 255.535095,286.797302 256.324249,287.659424 
z"/>
<path fill="#525252" opacity="1.000000" stroke="none" 
	d="
M253.756256,458.267822 
	C254.023972,458.527588 254.193848,459.122925 254.104736,459.845886 
	C253.783295,459.516785 253.720856,459.060089 253.756256,458.267822 
z"/>
<path fill="#A9A9A9" opacity="1.000000" stroke="none" 
	d="
M86.653984,488.007874 
	C86.424713,488.199768 85.871902,488.351318 85.176910,488.287109 
	C85.466637,488.036743 85.898537,488.002136 86.653984,488.007874 
z"/>
<path fill="#525252" opacity="1.000000" stroke="none" 
	d="
M201.738190,341.945892 
	C202.020554,342.192108 202.055801,342.461823 202.164612,343.133148 
	C202.185516,343.848633 202.024994,344.091034 201.541229,344.315948 
	C201.224762,343.845367 201.123611,343.320801 201.008896,342.396271 
	C200.995331,341.996338 201.491074,341.969360 201.738190,341.945892 
z"/>
<path fill="#5D5D5D" opacity="1.000000" stroke="none" 
	d="
M210.007874,335.537109 
	C209.857956,335.293549 209.751999,335.044098 209.646042,334.794647 
	C209.751099,334.871552 209.856171,334.948456 210.050781,335.274658 
	C210.140305,335.523956 210.051849,335.531219 210.007874,335.537109 
z"/>
<path fill="#5D5D5D" opacity="1.000000" stroke="none" 
	d="
M201.742798,287.996521 
	C201.714722,288.191223 201.446548,288.291412 201.095856,288.228638 
	C201.176468,288.011108 201.339584,287.956543 201.742798,287.996521 
z"/>
<path fill="#A9A9A9" opacity="1.000000" stroke="none" 
	d="
M584.857239,488.721161 
	C584.599609,488.872589 584.372559,488.708252 584.116211,488.269043 
	C584.387817,488.032471 584.654785,488.169525 584.857239,488.721161 
z"/>
<path fill="#525252" opacity="1.000000" stroke="none" 
	d="
M408.264587,461.923462 
	C408.282623,461.770050 408.533600,461.660828 408.870972,461.701843 
	C408.957397,461.852051 408.497498,461.967682 408.264587,461.923462 
z"/>
<path fill="#5D5D5D" opacity="1.000000" stroke="none" 
	d="
M253.717285,456.223694 
	C253.926620,456.247437 254.066620,456.550873 254.008545,456.955383 
	C253.756302,456.872131 253.702133,456.687805 253.717285,456.223694 
z"/>
<path fill="#525252" opacity="1.000000" stroke="none" 
	d="
M540.312866,347.195007 
	C540.297729,347.045013 540.515015,346.827972 540.854980,346.760803 
	C540.977722,346.910675 540.545349,347.127991 540.312866,347.195007 
z"/>
<path fill="#FCFCFC" opacity="1.000000" stroke="none" 
	d="
M450.091492,543.958862 
	C450.091492,547.408630 450.091492,550.858337 450.091492,554.603577 
	C446.892426,554.603577 444.326324,554.603577 441.004181,554.603577 
	C441.004181,538.961426 441.004181,523.413330 440.981445,506.993103 
	C440.928284,504.775513 440.897858,503.430145 440.867432,502.084717 
	C444.724243,501.749115 448.588379,501.160156 452.432220,501.271729 
	C453.298096,501.296875 454.361328,503.670105 454.878174,505.124329 
	C458.993378,516.703491 462.991241,528.324341 467.047150,539.924683 
	C467.575745,541.436401 468.230072,542.904236 469.244629,545.437073 
	C473.361023,533.669556 477.111725,522.954895 480.850006,512.235901 
	C481.013031,511.768463 481.013000,511.244629 481.172058,510.775208 
	C484.735291,500.259186 484.737518,500.259949 496.530426,501.286743 
	C496.530426,518.904541 496.530426,536.569031 496.530426,554.577393 
	C493.895813,554.577393 491.335938,554.577393 488.339172,554.577393 
	C488.339172,541.345032 488.339172,528.264404 488.339172,515.183838 
	C487.977234,515.100952 487.615295,515.018066 487.253387,514.935181 
	C485.097748,521.015503 482.939392,527.094849 480.787354,533.176453 
	C478.625641,539.285339 476.205109,545.320129 474.412750,551.535767 
	C473.360565,555.184692 470.964752,554.777222 468.282532,554.987793 
	C465.393677,555.214539 464.401764,554.051086 463.523834,551.363647 
	C460.230164,541.281799 456.553528,531.325073 452.690674,520.683228 
	C451.756744,518.084290 451.152679,516.123535 450.122559,512.779907 
	C450.122559,519.207275 450.122559,524.091675 450.122559,528.976013 
	C450.080536,530.712952 450.038513,532.449890 450.005615,535.025818 
	C450.038330,537.227722 450.061920,538.590576 450.085510,539.953491 
	C450.056732,540.417542 450.027985,540.881592 450.006775,542.011597 
	C450.040009,543.104675 450.065735,543.531738 450.091492,543.958862 
z"/>
<path fill="#FBFBFB" opacity="1.000000" stroke="none" 
	d="
M362.571045,520.872192 
	C365.669617,508.263184 375.708344,499.975433 388.271973,500.093414 
	C394.171173,500.148804 400.498352,500.198578 405.873352,502.243683 
	C424.437195,509.306885 425.447235,531.948120 417.038757,544.272644 
	C406.538147,559.663696 378.532196,560.362793 367.250000,545.567261 
	C361.758270,538.365356 361.191132,529.938477 362.571045,520.872192 
M374.524597,540.792725 
	C377.436920,542.929321 380.077484,545.711609 383.315491,547.074280 
	C391.169342,550.379456 399.212433,549.905823 405.882019,544.409058 
	C413.194672,538.382385 414.125336,529.983826 412.095337,521.180664 
	C410.312256,513.448303 405.416718,508.940765 397.599854,507.271820 
	C385.728912,504.737305 375.156311,509.836700 372.173126,519.940247 
	C370.116333,526.906128 370.416595,533.714783 374.524597,540.792725 
z"/>
<path fill="#FBFBFB" opacity="1.000000" stroke="none" 
	d="
M275.802185,547.052429 
	C282.338287,541.722351 281.691345,537.564636 274.059021,534.802979 
	C267.038269,532.262573 259.855713,530.170532 252.827332,527.649719 
	C245.129852,524.888916 242.726196,521.020752 242.917969,513.113708 
	C243.027771,508.586090 245.377289,505.400787 249.044983,503.587128 
	C259.098053,498.616028 269.433563,498.161835 279.706482,503.077942 
	C284.916504,505.571198 287.335541,510.590485 286.447266,516.810791 
	C283.921875,516.810791 281.347778,516.810791 278.826599,516.810791 
	C275.456940,507.140717 263.687592,503.286346 255.278580,509.276733 
	C253.566635,510.496307 252.216431,513.254333 252.126617,515.363953 
	C252.065033,516.810608 254.187073,519.090332 255.829361,519.736877 
	C261.843323,522.104492 268.071014,523.926697 274.205597,525.991760 
	C276.408997,526.733459 278.640778,527.441589 280.747437,528.409363 
	C285.102264,530.409790 288.714294,532.849121 289.147400,538.473511 
	C289.634827,544.803711 286.949982,549.624695 281.872772,552.181213 
	C270.395050,557.960449 258.471039,557.902527 247.035599,551.803894 
	C241.454803,548.827637 239.630676,543.799805 240.752304,537.257935 
	C243.147934,537.257935 245.594391,537.257935 248.550140,537.257935 
	C249.952713,541.175598 250.342361,546.037354 255.906693,547.621033 
	C262.564575,549.515808 268.975586,549.616089 275.802185,547.052429 
z"/>
<path fill="#FBFBFB" opacity="1.000000" stroke="none" 
	d="
M523.639404,537.016541 
	C524.664795,537.702637 525.781677,538.387451 525.759338,539.032776 
	C525.567993,544.546021 529.275330,546.739868 533.601929,547.972900 
	C539.812622,549.742737 546.260559,550.112976 552.016235,546.778015 
	C554.094727,545.573730 556.227112,542.509949 556.229980,540.291931 
	C556.232300,538.508606 553.376343,535.913879 551.241577,535.080383 
	C543.505859,532.059937 535.442993,529.882263 527.685608,526.911194 
	C518.592285,523.428528 515.677795,513.635437 521.758606,506.752289 
	C523.951843,504.269653 527.251404,502.114197 530.431946,501.279663 
	C538.900024,499.057648 547.518677,498.590790 555.704041,502.824951 
	C561.281372,505.710052 563.398743,509.768921 562.730164,516.600952 
	C558.951050,516.881531 554.168762,520.193909 553.532288,512.485840 
	C553.429932,511.245880 551.535095,509.775360 550.136353,509.087463 
	C544.508057,506.319427 538.527161,505.576385 532.911438,508.669312 
	C530.789185,509.838135 528.264465,512.799500 528.379211,514.803101 
	C528.495972,516.840759 531.285767,519.563477 533.522461,520.480591 
	C539.655212,522.995422 546.113281,524.716370 552.440063,526.759155 
	C553.547852,527.116882 554.668030,527.452576 555.741150,527.898071 
	C561.242432,530.181763 565.811462,533.305725 565.858337,540.078064 
	C565.894836,545.352905 560.954346,551.789124 555.047729,553.841370 
	C545.604553,557.122314 536.031677,556.873413 526.680115,553.625793 
	C519.228333,551.038147 516.215637,545.401733 517.473511,536.996948 
	C519.313354,536.996948 521.258057,536.996948 523.639404,537.016541 
z"/>
<path fill="#FBFBFB" opacity="1.000000" stroke="none" 
	d="
M119.859207,508.530334 
	C110.676277,512.992676 108.861931,520.911133 109.069824,529.614624 
	C109.260925,537.614929 112.361076,544.030273 120.077347,547.644958 
	C128.641846,551.656921 140.484329,548.275146 143.934982,539.707458 
	C146.146240,534.217102 149.421509,534.659729 153.805725,535.392334 
	C153.995804,541.575439 150.843979,545.828491 146.761414,549.671326 
	C135.783463,560.004761 112.614571,557.483826 104.496033,545.044250 
	C94.810760,530.204041 100.204895,508.893707 115.810417,501.966797 
	C124.165596,498.258148 142.884079,498.046936 150.073441,507.722229 
	C152.086472,510.431305 153.232117,513.784851 155.075424,517.436646 
	C149.233810,518.262817 145.672989,518.902832 143.334808,513.229004 
	C141.147705,507.921722 130.956970,505.544159 123.541664,507.291077 
	C122.413071,507.556976 121.329544,508.014191 119.859207,508.530334 
z"/>
<path fill="#FBFBFB" opacity="1.000000" stroke="none" 
	d="
M212.871429,536.069946 
	C212.871429,524.610535 212.871429,513.151062 212.871429,501.347900 
	C216.042969,501.347900 218.603897,501.347900 220.857666,501.347900 
	C220.857666,514.883911 221.382233,528.310852 220.597855,541.660889 
	C220.286835,546.954468 215.874786,550.940979 210.632004,553.273438 
	C202.802246,556.756775 194.691345,557.015320 186.727371,554.653137 
	C180.649780,552.850464 175.011902,548.915405 174.430466,542.197937 
	C173.261383,528.691162 173.202469,515.088257 172.675095,501.253601 
	C176.253876,501.253601 178.704193,501.253601 182.003845,501.253601 
	C182.003845,503.172638 181.966736,505.085114 182.010040,506.995758 
	C182.247253,517.461426 181.840683,527.998657 182.967957,538.368652 
	C183.842178,546.410889 188.694305,549.051819 198.270142,549.005676 
	C206.239838,548.967285 210.408218,545.723022 212.312592,537.666260 
	C212.616806,536.768921 212.744125,536.419434 212.871429,536.069946 
z"/>
<path fill="#FCFCFC" opacity="1.000000" stroke="none" 
	d="
M322.886536,511.079590 
	C323.622955,507.940887 321.611786,507.949493 319.432312,507.969513 
	C314.149506,508.018097 308.865906,507.985321 303.290466,507.985321 
	C303.290466,505.540619 303.290466,503.635406 303.290466,501.364380 
	C319.448181,501.364380 335.488922,501.364380 351.788818,501.364380 
	C352.152008,503.319824 352.505127,505.221039 352.972595,507.737976 
	C345.964813,507.737976 339.407806,507.737976 332.145813,507.737976 
	C332.145813,523.614868 332.145813,538.956177 332.145813,555.384399 
	C328.585846,554.725464 325.874268,554.223572 323.089478,552.872070 
	C322.973022,538.374878 322.929779,524.727234 322.886536,511.079590 
z"/>
<path fill="#A1A1A1" opacity="1.000000" stroke="none" 
	d="
M322.610016,511.377991 
	C322.929779,524.727234 322.973022,538.374878 322.971436,552.484009 
	C322.633057,552.379700 322.081665,551.812927 322.083679,551.248169 
	C322.130676,538.057434 322.237640,524.866943 322.610016,511.377991 
z"/>
<path fill="#A9A9A9" opacity="1.000000" stroke="none" 
	d="
M450.458313,528.916626 
	C450.122559,524.091675 450.122559,519.207275 450.122559,512.779907 
	C451.152679,516.123535 451.756744,518.084290 452.455231,520.423157 
	C451.964447,523.486572 451.379272,526.171875 450.458313,528.916626 
z"/>
<path fill="#A1A1A1" opacity="1.000000" stroke="none" 
	d="
M440.618835,502.311615 
	C440.897858,503.430145 440.928284,504.775513 440.921875,506.523010 
	C440.713440,505.462891 440.541840,504.000671 440.618835,502.311615 
z"/>
<path fill="#A9A9A9" opacity="1.000000" stroke="none" 
	d="
M450.342072,539.725952 
	C450.061920,538.590576 450.038330,537.227722 450.054199,535.458008 
	C450.261993,536.533569 450.430328,538.015991 450.342072,539.725952 
z"/>
<path fill="#A9A9A9" opacity="1.000000" stroke="none" 
	d="
M450.304565,543.819458 
	C450.065735,543.531738 450.040009,543.104675 450.050537,542.358276 
	C450.230408,542.585999 450.374054,543.132996 450.304565,543.819458 
z"/>
<path fill="#A1A1A1" opacity="1.000000" stroke="none" 
	d="
M212.639801,536.238098 
	C212.744125,536.419434 212.616806,536.768921 212.268799,537.305054 
	C212.168121,537.129944 212.288147,536.768066 212.639801,536.238098 
z"/>
<path fill="#F6F6F6" opacity="1.000000" stroke="none" 
	d="
M515.152832,102.960678 
	C514.885803,104.528404 514.761841,106.220543 513.854614,106.994530 
	C496.255035,122.009430 478.576569,136.932022 460.888550,151.843018 
	C436.710052,172.225586 412.511627,192.584549 388.314301,212.944794 
	C387.069489,213.992218 385.754852,214.956726 384.187622,216.182877 
	C382.308075,213.948166 380.625580,211.947784 378.453278,209.364990 
	C422.526917,172.244812 466.459595,135.243362 510.620483,98.049706 
	C512.229553,99.769707 513.580444,101.213669 515.152832,102.960678 
z"/>
<path fill="#F3F3F3" opacity="1.000000" stroke="none" 
	d="
M488.965607,100.983253 
	C449.782684,133.962326 410.879120,166.724304 372.083405,199.395493 
	C366.969238,196.524536 366.508453,194.732178 369.931213,191.850418 
	C411.503510,156.848816 453.084351,121.857330 494.666443,86.867355 
	C495.555298,86.119415 496.485474,85.420502 497.839996,84.347176 
	C499.343018,85.758606 500.837402,87.161903 502.928802,89.125824 
	C498.129181,93.208687 493.687073,96.987419 488.965607,100.983253 
z"/>
<path fill="#F3F3F3" opacity="1.000000" stroke="none" 
	d="
M452.653015,195.643112 
	C479.835541,172.698288 506.759369,149.996216 533.667053,127.307732 
	C537.525085,129.895126 537.856201,131.826065 534.388367,134.735947 
	C493.384247,169.142776 452.473877,203.661377 411.557281,238.172470 
	C408.655884,240.619659 405.907135,243.012329 403.201141,237.169571 
	C419.428711,223.551117 435.911469,209.718491 452.653015,195.643112 
z"/>
<path fill="#ECECEC" opacity="1.000000" stroke="none" 
	d="
M380.419861,200.485870 
	C421.663055,165.709412 462.620667,131.154526 503.636749,96.669151 
	C504.844727,95.653496 506.667694,95.369247 508.203888,94.743950 
	C508.475769,95.300819 508.747650,95.857689 509.019531,96.414558 
	C497.631836,106.041229 486.252655,115.677994 474.854828,125.292625 
	C443.948059,151.363907 413.052643,177.448761 382.067841,203.426971 
	C380.435181,204.795837 378.018097,205.229187 375.966217,206.098053 
	C377.358398,204.304535 378.750610,202.511032 380.419861,200.485870 
z"/>
<path fill="#676767" opacity="1.000000" stroke="none" 
	d="
M446.693054,172.170166 
	C446.607452,173.477478 446.184296,174.734375 445.761169,175.991272 
	C445.157196,175.648346 444.553223,175.305420 443.949249,174.962494 
	C444.751343,174.014908 445.553406,173.067337 446.693054,172.170166 
z"/>
<path fill="#676767" opacity="1.000000" stroke="none" 
	d="
M515.762817,131.914398 
	C514.998901,132.304443 514.318420,132.385727 513.637878,132.467010 
	C513.731140,131.919876 513.824341,131.372757 513.917603,130.825623 
	C514.560486,131.085632 515.203369,131.345642 515.762817,131.914398 
z"/>
<path fill="#676767" opacity="1.000000" stroke="none" 
	d="
M334.191223,242.797791 
	C333.945862,242.235947 333.999573,241.735458 334.053314,241.234985 
	C334.502563,241.348831 334.951813,241.462692 335.401062,241.576553 
	C335.097473,242.004089 334.793884,242.431625 334.191223,242.797791 
z"/>
<path fill="#676767" opacity="1.000000" stroke="none" 
	d="
M313.533905,326.391510 
	C313.649994,325.941559 313.933350,325.665710 314.234772,325.411163 
	C314.242523,325.404602 314.447754,325.631897 314.560883,325.750122 
	C314.275116,326.022888 313.989349,326.295624 313.533905,326.391510 
z"/>
<path fill="#676767" opacity="1.000000" stroke="none" 
	d="
M334.533936,248.391586 
	C334.650024,247.941559 334.933411,247.665634 335.234802,247.411041 
	C335.242554,247.404510 335.447784,247.631836 335.560883,247.750092 
	C335.275116,248.022888 334.989349,248.295685 334.533936,248.391586 
z"/>
<path fill="#393939" opacity="1.000000" stroke="none" 
	d="
M387.000000,429.000000 
	C386.032684,429.117615 385.065369,429.235229 384.072083,429.622498 
	C378.293182,423.361115 372.462585,416.895386 366.861237,410.236786 
	C365.892303,409.084991 365.894562,407.116211 365.721008,405.318298 
	C369.118195,408.619690 372.210602,412.156799 375.380249,415.623230 
	C376.979126,417.371857 378.718048,418.992462 380.835114,421.153259 
	C382.851624,422.756226 384.426666,423.876892 386.001709,424.997589 
	C386.001709,424.997589 386.000000,425.000000 386.136688,425.321136 
	C386.515564,426.761505 386.757782,427.880768 387.000000,429.000000 
z"/>
<path fill="#5D5D5D" opacity="1.000000" stroke="none" 
	d="
M540.999390,337.999390 
	C541.273865,337.886292 541.549011,337.773865 541.911438,337.831512 
	C541.998657,338.001617 542.000000,338.000000 541.751221,338.000244 
	C541.335754,338.000732 541.169128,338.000977 541.002441,338.001221 
	C541.002441,338.001221 541.000000,338.000000 540.999390,337.999390 
z"/>
<path fill="#666666" opacity="1.000000" stroke="none" 
	d="
M541.016968,338.253906 
	C541.169128,338.000977 541.335754,338.000732 541.752441,337.999329 
	C541.837524,338.434326 541.672607,338.870544 541.507690,339.306732 
	C541.348938,339.040009 541.190186,338.773285 541.016968,338.253906 
z"/>
<path fill="#525252" opacity="1.000000" stroke="none" 
	d="
M194.001221,347.999146 
	C193.879745,347.856567 193.757034,347.714905 193.634338,347.573212 
	C193.720306,347.623047 193.806259,347.672913 193.945190,347.862610 
	C193.998169,348.002441 194.000000,348.000000 194.001221,347.999146 
z"/>
<path fill="#2B2B2B" opacity="1.000000" stroke="none" 
	d="
M516.997559,361.997559 
	C516.996826,362.752960 516.996155,363.508362 516.994385,364.641998 
	C513.415771,367.489075 511.595703,365.473389 510.350983,362.440674 
	C507.849426,362.440674 505.486755,362.440674 503.124084,362.440674 
	C503.447540,362.082214 503.771027,361.723785 504.094482,361.365326 
	C502.659515,358.840668 501.750275,355.692810 499.667603,353.935944 
	C496.460785,351.230774 492.200989,349.802643 488.851685,347.229156 
	C485.765259,344.857605 482.719269,342.044403 480.695709,338.780762 
	C478.368530,335.027405 474.867157,333.299286 471.618286,330.854675 
	C468.438721,328.462280 466.303131,324.725647 463.488403,321.790924 
	C461.380310,319.592987 458.921692,317.731293 456.043060,315.216614 
	C456.202332,314.575256 456.551697,313.168579 456.948700,311.383392 
	C461.252258,314.587158 465.527039,318.147339 469.760162,321.756348 
	C478.381042,329.106232 487.030487,336.423889 495.570099,343.867310 
	C501.753906,349.257294 507.770599,354.838806 513.888855,360.304688 
	C514.606506,360.945831 515.495972,361.394714 516.652893,361.966370 
	C517.000000,362.000000 516.997559,361.997559 516.997559,361.997559 
z"/>
<path fill="#2B2B2B" opacity="1.000000" stroke="none" 
	d="
M161.000305,361.000610 
	C160.906647,361.036102 160.812683,361.070984 160.859055,361.052917 
	C160.999390,361.000000 161.000000,361.000000 161.000305,361.000610 
z"/>
<path fill="#2B2B2B" opacity="1.000000" stroke="none" 
	d="
M517.001221,362.001404 
	C517.095154,361.966125 517.187805,361.929413 517.139038,361.945129 
	C516.997559,361.997559 517.000000,362.000000 517.001221,362.001404 
z"/>
<path fill="#454545" opacity="1.000000" stroke="none" 
	d="
M387.256409,429.108856 
	C386.757782,427.880768 386.515564,426.761505 386.137299,425.320374 
	C388.981110,427.428864 391.961029,429.859253 394.981079,432.632599 
	C393.235718,432.009460 391.450226,431.043396 389.315857,430.055908 
	C388.482269,429.762238 387.997528,429.489990 387.256409,429.108856 
z"/>
<path fill="#454545" opacity="1.000000" stroke="none" 
	d="
M385.966003,424.643066 
	C384.426666,423.876892 382.851624,422.756226 381.141052,421.314087 
	C382.647095,422.091309 384.288727,423.189911 385.966003,424.643066 
z"/>
<path fill="#454545" opacity="1.000000" stroke="none" 
	d="
M402.976929,439.641968 
	C401.677155,438.907867 400.342010,437.831421 399.002838,436.378113 
	C400.313049,437.100677 401.627289,438.200165 402.976929,439.641968 
z"/>
<path fill="#454545" opacity="1.000000" stroke="none" 
	d="
M405.975403,442.649261 
	C405.030426,442.216583 404.049988,441.444763 403.042358,440.330322 
	C403.990112,440.761871 404.964996,441.535980 405.975403,442.649261 
z"/>
<path fill="#B3B3B3" opacity="1.000000" stroke="none" 
	d="
M374.327667,540.474792 
	C370.416595,533.714783 370.116333,526.906128 372.173126,519.940247 
	C375.156311,509.836700 385.728912,504.737305 397.599854,507.271820 
	C405.416718,508.940765 410.312256,513.448303 412.095337,521.180664 
	C414.125336,529.983826 413.194672,538.382385 405.882019,544.409058 
	C399.212433,549.905823 391.169342,550.379456 383.315491,547.074280 
	C380.077484,545.711609 377.436920,542.929321 374.327667,540.474792 
z"/>
</svg>